<svg xmlns="http://www.w3.org/2000/svg" style="display:none"><symbol id="icon-bars" viewBox="0 0 24 28"><path d="M24 21v2q0 .406-.297.703T23 24H1q-.406 0-.703-.297T0 23v-2q0-.406.297-.703T1 20h22q.406 0 .703.297T24 21zm0-8v2q0 .406-.297.703T23 16H1q-.406 0-.703-.297T0 15v-2q0-.406.297-.703T1 12h22q.406 0 .703.297T24 13zm0-8v2q0 .406-.297.703T23 8H1q-.406 0-.703-.297T0 7V5q0-.406.297-.703T1 4h22q.406 0 .703.297T24 5z"/></symbol><symbol id="icon-close" viewBox="0 0 32 32"><path d="M31.708 25.708L22 16l9.708-9.708a1 1 0 0 0 0-1.414L27.122.292a1 1 0 0 0-1.414-.001L16 9.999 6.292.291a.998.998 0 0 0-1.414.001L.292 4.878a1 1 0 0 0 0 1.414L10 16 .292 25.708a.999.999 0 0 0 0 1.414l4.586 4.586a1 1 0 0 0 1.414 0L16 22l9.708 9.708a1 1 0 0 0 1.414 0l4.586-4.586a.999.999 0 0 0 0-1.414z"/></symbol><symbol id="icon-facebook" viewBox="0 0 32 32"><path d="M17.996 32H12V16H8v-5.514l4-.002-.007-3.248c0-4.498 1.22-7.236 6.519-7.236h4.412v5.515h-2.757c-2.064 0-2.163.771-2.163 2.209l-.008 2.76h4.959l-.584 5.514-4.37.002-.004 16z"/></symbol><symbol id="icon-feed" viewBox="0 0 32 32"><path d="M26.667 0H5.334C2.4 0 0 2.4 0 5.334v21.332C0 29.601 2.4 32 5.334 32h21.333C29.601 32 32 29.602 32 26.666V5.334C32 2.4 29.601 0 26.667 0zM8.717 25.977A2.711 2.711 0 0 1 6 23.27a2.721 2.721 0 0 1 2.717-2.713 2.72 2.72 0 0 1 2.721 2.713 2.71 2.71 0 0 1-2.721 2.707zm6.829.023a9.504 9.504 0 0 0-2.796-6.764 9.478 9.478 0 0 0-6.747-2.801v-3.912c7.427 0 13.473 6.045 13.473 13.477h-3.93zm6.942 0c0-9.096-7.396-16.498-16.48-16.498V5.588c11.25 0 20.405 9.16 20.405 20.412h-3.924z"/></symbol><symbol id="icon-menu" viewBox="0 0 32 32"><path d="M2 6h28v6H2zm0 8h28v6H2zm0 8h28v6H2z"/></symbol><symbol id="icon-twitter" viewBox="0 0 32 32"><path d="M32 6.076a13.14 13.14 0 0 1-3.771 1.034 6.592 6.592 0 0 0 2.887-3.632 13.151 13.151 0 0 1-4.169 1.593 6.557 6.557 0 0 0-4.792-2.073 6.565 6.565 0 0 0-6.565 6.565c0 .515.058 1.016.17 1.496a18.64 18.64 0 0 1-13.532-6.86A6.536 6.536 0 0 0 1.339 7.5a6.563 6.563 0 0 0 2.921 5.465 6.54 6.54 0 0 1-2.974-.821l-.001.083a6.568 6.568 0 0 0 5.266 6.437 6.578 6.578 0 0 1-2.965.112 6.571 6.571 0 0 0 6.133 4.559 13.172 13.172 0 0 1-8.154 2.81c-.53 0-1.052-.031-1.566-.092a18.579 18.579 0 0 0 10.064 2.95c12.076 0 18.679-10.004 18.679-18.68 0-.285-.006-.568-.019-.849a13.347 13.347 0 0 0 3.276-3.398z"/></symbol><symbol id="icon-vimeo" viewBox="0 0 32 32"><path d="M0 9.637l1.3 1.704s2.68-2.113 3.574-1.056 4.304 13.811 5.443 16.164c.994 2.063 3.735 4.791 6.741 2.843 3.004-1.948 12.995-10.478 14.783-20.55 1.787-10.07-12.023-7.96-13.485.813 3.656-2.195 5.607.892 3.737 4.387-1.867 3.491-3.574 5.769-4.467 5.769-.892 0-1.578-2.337-2.6-6.42-1.056-4.222-1.05-11.827-5.441-10.965C5.444 3.139.001 9.638.001 9.638z"/></symbol><symbol id="icon-youtube" viewBox="0 0 32 32"><path d="M26 4H6c-3.3 0-6 2.7-6 6v12c0 3.3 2.7 6 6 6h20c3.3 0 6-2.7 6-6V10c0-3.3-2.7-6-6-6zM12 24V8l10 8-10 8z"/></symbol></svg>